HIERARCHY
ROOT Hips
{
	OFFSET	0.00	0.00	0.00
	CHANNELS 6 Xposition Yposition Zposition Zrotation Xrotation Yrotation
	JOINT LeftUpLeg
	{
		OFFSET	 0.126116	-0.014019	-0.065224
		CHANNELS 3 Zrotation Xrotation Yrotation
		JOINT LeftLeg
		{
			OFFSET	 0.000000	 0.000000	 0.569914
			CHANNELS 3 Zrotation Xrotation Yrotation
			JOINT LeftFoot
			{
				OFFSET	 0.000000	 0.000000	 0.544423
				CHANNELS 3 Zrotation Xrotation Yrotation
				JOINT LeftToeBase
				{
					OFFSET	 0.000000	 0.000000	 0.207117
					CHANNELS 3 Zrotation Xrotation Yrotation
					End Site
					{
						OFFSET	 0.000000	 0.000000	 0.207117
					}
				}
			}
		}
	}
	JOINT RightUpLeg
	{
		OFFSET	-0.124023	-0.008373	-0.065224
		CHANNELS 3 Zrotation Xrotation Yrotation
		JOINT RightLeg
		{
			OFFSET	 0.000000	 0.000000	 0.570047
			CHANNELS 3 Zrotation Xrotation Yrotation
			JOINT RightFoot
			{
				OFFSET	 0.000000	 0.000000	 0.544354
				CHANNELS 3 Zrotation Xrotation Yrotation
				JOINT RightToeBase
				{
					OFFSET	 0.000000	 0.000000	 0.207540
					CHANNELS 3 Zrotation Xrotation Yrotation
					End Site
					{
						OFFSET	 0.000000	 0.000000	 0.207540
					}
				}
			}
		}
	}
	JOINT Spine
	{
		OFFSET	 0.000184	-0.007763	 0.117403
		CHANNELS 3 Zrotation Xrotation Yrotation
		JOINT Spine1
		{
			OFFSET	 0.000000	 0.000000	 0.137269
			CHANNELS 3 Zrotation Xrotation Yrotation
			JOINT Spine2
			{
				OFFSET	 0.000000	 0.000000	 0.156879
				CHANNELS 3 Zrotation Xrotation Yrotation
				JOINT LeftShoulder
				{
					OFFSET	 0.080501	-0.002496	 0.160144
					CHANNELS 3 Zrotation Xrotation Yrotation
					JOINT LeftArm
					{
						OFFSET	 0.000000	 0.000000	 0.164363
						CHANNELS 3 Zrotation Xrotation Yrotation
						JOINT LeftForeArm
						{
							OFFSET	 0.000000	 0.000000	 0.364576
							CHANNELS 3 Zrotation Xrotation Yrotation
							JOINT LeftHand
							{
								OFFSET	 0.000000	 0.000000	 0.360812
								CHANNELS 3 Zrotation Xrotation Yrotation
								JOINT LeftHandIndex1
								{
									OFFSET	 0.000000	 0.000000	 0.086006
									CHANNELS 3 Zrotation Xrotation Yrotation
									JOINT LeftHandIndex2
									{
										OFFSET	 0.000000	 0.000000	 0.047236
										CHANNELS 3 Zrotation Xrotation Yrotation
										JOINT LeftHandIndex3
										{
											OFFSET	-0.004284	-0.000551	 0.038166
											CHANNELS 3 Zrotation Xrotation Yrotation
											End Site
											{
												OFFSET	-0.004284	-0.000551	 0.038166
											}
										}
									}
								}
							}
						}
					}
				}
				JOINT Neck
				{
					OFFSET	 0.000000	 0.000000	 0.176489
					CHANNELS 3 Zrotation Xrotation Yrotation
					JOINT Head
					{
						OFFSET	 0.000000	-0.001747	 0.077940
						CHANNELS 3 Zrotation Xrotation Yrotation
						End Site
						{
							OFFSET	 0.000000	-0.001747	 0.077940
						}
					}
				}
				JOINT RightShoulder
				{
					OFFSET	-0.080363	 0.000306	 0.159706
					CHANNELS 3 Zrotation Xrotation Yrotation
					JOINT RightArm
					{
						OFFSET	 0.000000	 0.000000	 0.164196
						CHANNELS 3 Zrotation Xrotation Yrotation
						JOINT RightForeArm
						{
							OFFSET	 0.000000	 0.000000	 0.365611
							CHANNELS 3 Zrotation Xrotation Yrotation
							JOINT RightHand
							{
								OFFSET	 0.000000	 0.000000	 0.360648
								CHANNELS 3 Zrotation Xrotation Yrotation
								JOINT RightHandIndex1
								{
									OFFSET	 0.000000	 0.000000	 0.069977
									CHANNELS 3 Zrotation Xrotation Yrotation
									JOINT RightHandIndex2
									{
										OFFSET	 0.000000	 0.000000	 0.052305
										CHANNELS 3 Zrotation Xrotation Yrotation
										JOINT RightHandIndex3
										{
											OFFSET	 0.009002	-0.000782	 0.042196
											CHANNELS 3 Zrotation Xrotation Yrotation
											End Site
											{
												OFFSET	 0.009002	-0.000782	 0.042196
											}
										}
									}
								}
							}
						}
					}
				}
			}
		}
	}
}
MOTION
Frames:    7
Frame Time: 0.03333334
 0.000350	 0.046203	 1.271889	-0.059071	 3.036936	 0.781193	 11.198030	-8.357443	 177.342300	 2.197527	-16.079980	 0.724507	 0.282763	 72.047040	-0.364271	-2.385833	 28.452750	 0.000004	-3.818515	-7.449215	-178.199000	-0.730472	-13.913850	 1.063822	 5.662760	 70.807290	 0.627175	 2.384659	 28.388700	-0.000001	 1.287816	 7.791891	-0.419084	 1.481597	-7.598440	 0.348169	-3.832743	 11.713060	 0.913276	-91.023410	 68.811630	-177.500700	-6.062504	 0.394123	-22.536450	 25.150420	-0.119997	-0.777286	-6.900987	-10.192310	-4.316964	-2.027600	 6.559038	 9.033609	-5.188889	 0.308190	 3.541030	-5.234859	 0.342567	 0.430617	 4.682466	 20.336700	-7.501108	-8.977221	-15.147920	 1.624729	 88.815130	 67.341190	 176.975000	 9.930668	 8.244884	 15.083860	-27.339060	-4.356089	 12.298820	 3.884075	-9.803294	 5.656639	 1.803333	 3.979147	-15.098590	 4.898592	 3.004813	-9.310344	 5.224449	 0.395017	 2.014677
-0.000133	 0.050695	 1.269185	 0.014567	 3.917608	 0.887630	 11.243800	-10.485140	 177.388800	 2.163129	-17.973900	 0.816827	 1.286786	 72.767500	-1.468873	-2.385833	 28.452750	 0.000004	-4.202016	-9.518209	-178.494800	-0.688732	-15.768750	 1.213633	 5.242766	 71.504080	 1.110184	 2.384659	 28.388700	-0.000001	 0.441834	 8.380591	-0.456637	 1.508721	-9.663131	 0.328768	-3.954604	 14.196800	 1.126925	-90.907780	 68.003170	-177.274100	-5.110399	 0.725098	-24.364270	 24.157020	-0.105246	-0.983282	-5.603817	-11.513710	-4.837168	-2.027600	 6.559038	 9.033609	-5.188889	 0.308190	 3.541030	-5.234859	 0.342567	 0.430617	 4.723418	 22.796590	-8.213613	-8.740597	-16.907300	 1.507232	 88.595110	 65.792580	 176.607300	 9.154687	 8.570256	 16.182700	-26.722130	-4.591852	 13.575360	 2.238235	-10.416250	 5.285099	 1.803333	 3.979147	-15.098590	 4.898592	 3.004813	-9.310344	 5.224449	 0.395017	 2.014677
-0.000740	 0.057065	 1.265850	 0.108618	 5.067379	 1.027443	 11.469870	-13.099390	 177.503500	 2.314341	-20.033950	 0.917350	 2.734909	 73.468430	-3.054121	-2.385833	 28.452760	 0.000004	-4.703136	-12.017170	-178.886800	-0.783554	-17.722550	 1.330383	 4.627926	 72.170930	 1.965520	 2.384659	 28.388700	-0.000001	-0.583229	 8.993441	-0.525683	 1.533973	-11.766780	 0.334970	-4.132938	 16.775490	 1.341458	-90.825750	 66.932690	-177.207400	-3.930076	 1.387230	-26.540820	 22.554230	-0.080073	-1.240665	-4.599456	-12.915440	-5.649222	-2.027600	 6.559038	 9.033609	-5.188889	 0.308190	 3.541030	-5.234859	 0.342567	 0.430617	 4.635245	 25.076130	-8.752672	-8.467219	-18.550850	 1.328185	 88.415600	 63.945800	 176.429700	 7.770581	 9.258249	 17.688400	-25.780410	-4.565372	 14.490770	 0.442064	-10.994600	 5.099212	 1.803333	 3.979147	-15.098590	 4.898592	 3.004813	-9.310344	 5.224449	 0.395017	 2.014677
-0.001519	 0.066411	 1.261854	 0.250610	 6.705552	 1.204473	 11.468310	-16.608420	 177.660700	 2.273899	-22.531800	 1.031612	 5.005908	 74.200630	-5.511585	-2.385832	 28.452790	-0.000001	-5.356577	-15.239800	-179.426200	-1.138253	-19.788750	 1.349784	 3.733927	 72.772990	 3.457785	 2.384659	 28.388700	-0.000001	-1.818658	 9.597876	-0.642977	 1.578873	-13.811770	 0.385551	-4.418262	 19.269380	 1.548151	-90.889830	 65.466590	-177.591700	-2.449011	 2.110360	-28.793390	 19.863570	-0.035365	-1.560071	-4.335053	-14.310110	-6.939581	-2.027600	 6.559038	 9.033609	-5.188889	 0.308190	 3.541030	-5.234859	 0.342567	 0.430617	 4.219440	 26.604140	-8.830296	-8.182021	-19.703380	 1.025499	 88.427020	 61.774720	 176.755200	 5.421091	 9.893667	 18.954070	-24.141830	-4.465695	 15.957510	-1.479574	-11.470590	 5.319013	 1.803333	 3.979147	-15.098590	 4.898592	 3.004813	-9.310344	 5.224449	 0.395017	 2.014677
-0.001882	 0.078159	 1.257202	 0.561416	 8.759117	 1.269239	 11.338900	-20.743510	 178.074000	 2.210737	-25.151040	 1.117250	 8.004813	 74.563640	-8.698486	-2.385833	 28.452760	 0.000004	-6.145561	-19.146580	-179.975400	-1.313587	-22.061770	 1.441429	 2.250719	 73.277240	 5.381956	 2.384659	 28.388700	-0.000001	-3.180277	 9.886617	-0.755679	 1.678014	-15.901420	 0.523303	-4.692664	 21.199700	 1.788373	-91.519470	 64.857440	-179.322300	-1.090675	 3.880171	-29.195940	 17.942590	 0.011827	-1.897298	-4.234901	-15.048370	-8.232937	-2.027600	 6.559038	 9.033609	-5.188889	 0.308190	 3.541030	-5.234859	 0.342567	 0.430617	 3.716697	 26.948860	-8.743501	-7.865559	-20.162170	 0.833500	 89.011070	 60.980530	 178.204600	 2.626976	 11.493560	 17.636880	-22.638410	-4.843816	 19.184250	-3.233066	-11.929350	 5.504642	 1.803333	 3.979147	-15.098590	 4.898592	 3.004813	-9.310344	 5.224449	 0.395017	 2.014677
-0.002250	 0.092810	 1.252400	 0.803794	 11.166730	 1.233634	 11.300250	-25.204560	 178.721400	 2.243455	-27.356790	 1.223041	 11.428870	 74.607030	-12.493800	-2.385832	 28.452790	-0.000001	-6.737345	-23.536520	 179.493000	-1.486541	-24.112600	 1.496811	 0.027227	 73.555030	 8.170282	 2.384659	 28.388700	-0.000001	-4.669466	 10.186710	-0.752842	 1.810218	-17.511760	 0.516868	-4.864940	 22.647030	 2.266718	-92.349770	 65.014270	 178.474900	-0.040329	 6.893427	-29.594880	 17.148320	 0.062558	-2.266948	-3.641999	-15.591190	-8.897363	-2.027600	 6.559038	 9.033609	-5.188889	 0.308190	 3.541030	-5.234859	 0.342567	 0.430617	 3.248493	 25.733610	-8.947695	-7.481287	-19.706850	 0.612699	 89.822150	 60.425620	-179.908600	-0.398346	 13.738180	 16.707120	-20.673970	-4.758956	 21.994400	-4.234416	-12.604750	 5.676776	 1.803333	 3.979147	-15.098590	 4.898592	 3.004813	-9.310344	 5.224449	 0.395017	 2.014677
-0.003509	 0.108158	 1.248392	 1.428636	 14.024700	 1.246044	 10.725270	-29.872560	 179.248400	 2.649628	-28.881880	 1.482060	 13.863140	 74.101560	-15.658360	-2.385832	 28.452790	-0.000001	-7.718204	-28.082930	 178.694600	-1.326512	-25.699090	 1.658418	-2.903084	 73.342890	 11.434460	 2.384659	 28.388700	-0.000001	-6.100729	 10.134600	-0.756296	 1.648538	-18.434640	 0.438327	-4.990939	 23.074270	 2.385495	-93.040310	 65.212850	 176.607800	 1.111070	 9.469315	-30.202030	 16.627180	 0.114658	-2.593157	-2.989971	-15.706790	-9.248486	-2.027600	 6.559038	 9.033609	-5.188889	 0.308190	 3.541030	-5.234859	 0.342567	 0.430617	 2.903994	 24.828440	-8.814844	-7.191885	-19.457950	 0.360841	 90.573720	 60.377910	-178.193300	-3.239163	 15.918820	 16.729880	-19.013380	-4.432938	 23.914440	-4.847799	-12.965110	 5.946830	 1.803333	 3.979147	-15.098590	 4.898592	 3.004813	-9.310344	 5.224449	 0.395017	 2.014677
